#!OML:ASF I:\golf\golf\golf 2\Subject 1\2002-09-07\Subject1.ASF
:FULLY-SPECIFIED
:DEGREES
352
root -7.09887 18.1138 1.50669 -171.659 63.9293 -183.628
lowerback -3.21324 -8.03211 1.56816
upperback 4.86003 -10.9874 11.0022
thorax 9.02815 -5.52783 9.81013
lowerneck -9.54207 -1.01937 -0.392965
upperneck 29.0158 3.61206 -12.7904
head 11.234 0.598398 -4.11181
rclavicle 8.26944e-014 -1.90833e-014
rhumerus -7.19023 4.44858 -88.7533
rradius 53.2322
rwrist -64.9096
rhand -56.3204 4.536
rfingers 7.12502
rthumb -28.6423 -23.2887
lclavicle 8.26944e-014 -1.90833e-014
lhumerus 20.5104 -50.6158 98.2738
lradius 15.7117
lwrist -6.11443
lhand 1.79045 45.9177
lfingers 7.12502
lthumb -152.696 253.961
rfemur -18.895 -1.00984 4.47773
rtibia 36.7251
rfoot -6.24925 -25.6127
rtoes 5.16965
lfemur -23.8111 3.70533 -17.2516
ltibia 16.3526
lfoot -3.84399 -20.437
ltoes -15.596
353
root -7.06215 18.138 1.46057 -172.22 62.8467 -183.957
lowerback -4.4451 -7.21017 1.84658
upperback 4.7302 -9.97245 11.3964
thorax 9.45769 -5.00045 10.1357
lowerneck -9.36714 -2.0824 -0.7292
upperneck 29.2689 2.21764 -12.6832
head 11.178 -0.0277662 -4.17949
rclavicle 7.15625e-014 -6.67916e-014
rhumerus -6.94767 5.94529 -89.9039
rradius 49.3897
rwrist -67.1826
rhand -53.1361 1.5739
rfingers 7.12502
rthumb -25.5961 -26.726
lclavicle 7.15625e-014 -6.67916e-014
lhumerus 17.7602 -48.8728 99.4279
lradius 14.7586
lwrist -5.90033
lhand 3.80071 49.4917
lfingers 7.12502
lthumb -150.775 257.216
rfemur -18.0066 -0.407214 4.15468
rtibia 36.6764
rfoot -5.81668 -26.0568
rtoes 6.19488
lfemur -22.9413 3.61763 -17.6951
ltibia 15.2875
lfoot -3.49376 -21.3349
ltoes -14.5181
354
root -7.05556 18.1343 1.3861 -173.851 60.9038 -184.704
lowerback -4.60218 -6.63989 2.42341
upperback 4.62257 -9.19196 11.672
thorax 9.23953 -4.55291 10.2392
lowerneck -9.39248 -3.26054 -0.988316
upperneck 29.5616 0.687001 -12.6941
head 11.1752 -0.728256 -4.32332
rclavicle -1.27222e-014 -1.24042e-013
rhumerus -6.34776 6.95458 -91.0175
rradius 45.3823
rwrist -68.1427
rhand -49.7652 -1.39325
rfingers 7.12502
rthumb -22.3638 -30.1188
lclavicle -1.27222e-014 -1.24042e-013
lhumerus 15.7013 -47.5734 100.119
lradius 13.9081
lwrist -4.39034
lhand 4.88663 53.7361
lfingers 7.12502
lthumb -149.738 261.276
rfemur -16.1226 -0.69714 3.54489
rtibia 36.6607
rfoot -5.16421 -26.1506
rtoes 5.55937
lfemur -21.525 2.54034 -18.3434
ltibia 14.2655
lfoot -2.61955 -22.0739
ltoes -11.6457
355
root -7.0372 18.1346 1.3336 -174.705 59.5532 -185.112
lowerback -5.38369 -5.81524 3.37269
upperback 4.49725 -8.18003 11.5373
thorax 9.19977 -3.95705 9.62737
lowerneck -9.21476 -4.45034 -0.983882
upperneck 29.9138 -1.05001 -12.3199
head 11.134 -1.45197 -4.38627
rclavicle -8.74653e-014 -1.27222e-013
rhumerus -5.6893 7.06158 -92.9925
rradius 41.2921
rwrist -67.5032
rhand -45.6045 -5.51198
rfingers 7.12502
rthumb -18.3653 -34.665
lclavicle -8.74653e-014 -1.27222e-013
lhumerus 13.847 -46.9318 99.892
lradius 13.2259
lwrist -1.7097
lhand 5.76229 58.0015
lfingers 7.12502
lthumb -148.903 265.385
rfemur -14.9668 -0.506812 3.15532
rtibia 36.6709
rfoot -4.37154 -26.4574
rtoes 4.9317
lfemur -20.467 2.28699 -18.9188
ltibia 13.2489
lfoot -2.54942 -22.9418
ltoes -11.6223
356
root -7.01428 18.1341 1.28612 -175.292 58.0686 -185.441
lowerback -6.09669 -5.13075 3.62833
upperback 4.08866 -7.28093 11.84
thorax 9.03484 -3.48185 9.92266
lowerneck -8.6264 -5.69684 -1.47562
upperneck 30.1501 -2.73428 -12.0518
head 10.9982 -2.19247 -4.36821
rclavicle 5.40694e-014 7.95139e-014
rhumerus -5.11307 7.31716 -94.3332
rradius 37.342
rwrist -65.629
rhand -40.3333 -9.545
rfingers 7.12502
rthumb -13.2891 -39.1013
lclavicle 5.40694e-014 7.95139e-014
lhumerus 11.775 -45.1473 100.608
lradius 12.8295
lwrist 1.15722
lhand 6.69163 61.7898
lfingers 7.12502
lthumb -148.018 268.999
rfemur -13.9422 -0.321586 2.8858
rtibia 36.6583
rfoot -4.23898 -27.0394
rtoes 6.50007
lfemur -19.7502 1.85575 -19.3836
ltibia 12.4583
lfoot -2.02801 -23.8151
ltoes -10.065
357
root -6.99269 18.1312 1.24827 -175.943 57.4846 -185.53
lowerback -6.18481 -4.18166 3.60942
upperback 3.81043 -5.92977 12.2957
thorax 8.62449 -2.802 10.6725
lowerneck -7.99352 -6.9624 -2.11342
upperneck 30.3391 -4.38976 -11.8777
head 10.8611 -2.94192 -4.34409
rclavicle 7.95139e-015 4.45278e-014
rhumerus -4.13913 6.96397 -95.4038
rradius 33.2318
rwrist -62.4798
rhand -34.0928 -12.3999
rfingers 7.12502
rthumb -7.2691 -42.2551
lclavicle 7.95139e-015 4.45278e-014
lhumerus 9.90423 -42.8203 101.545
lradius 12.7515
lwrist 4.35435
lhand 7.53598 65.1543
lfingers 7.12502
lthumb -147.214 447.801
rfemur -12.9695 0.469572 2.69101
rtibia 36.6025
rfoot -4.16782 -27.3057
rtoes 8.07712
lfemur -18.7828 1.74491 -19.5981
ltibia 11.9249
lfoot -1.40377 -24.0267
ltoes -7.33569
358
root -6.97892 18.1227 1.19921 -176.36 56.0097 -185.594
lowerback -6.41731 -3.3645 4.00049
upperback 3.35065 -4.77364 12.6265
thorax 8.05417 -2.17448 10.9825
lowerneck -7.53946 -8.30907 -2.62134
upperneck 30.702 -6.18932 -11.6126
head 10.8315 -3.73841 -4.33587
rclavicle 6.36111e-015 9.54166e-015
rhumerus -2.54209 5.46639 -96.5578
rradius 28.8882
rwrist -58.4793
rhand -27.5026 -13.9039
rfingers 7.12502
rthumb -0.905506 -43.8818
lclavicle 6.36111e-015 9.54166e-015
lhumerus 8.52638 -41.2214 102.047
lradius 12.733
lwrist 8.46456
lhand 7.71224 68.0983
lfingers 7.12502
lthumb -147.047 444.892
rfemur -11.8312 0.0780934 2.5016
rtibia 36.507
rfoot -4.0519 -27.2583
rtoes 8.5028
lfemur -18.1983 0.857208 -19.8376
ltibia 11.5009
lfoot -1.14193 -24.3245
ltoes -6.04765
359
root -6.96376 18.1118 1.1557 -176.915 54.5562 -185.866
lowerback -6.56069 -2.2997 4.43502
upperback 2.92266 -3.28718 12.6715
thorax 7.38605 -1.37764 10.9606
lowerneck -7.42773 -9.81455 -2.74811
upperneck 31.3164 -8.31191 -11.1887
head 10.9455 -4.63075 -4.39671
rclavicle -2.62396e-014 -1.59028e-014
rhumerus -0.449846 3.40725 -97.7981
rradius 24.8265
rwrist -54.0488
rhand -21.6212 -14.5586
rfingers 7.12502
rthumb 4.77453 -44.4848
lclavicle -2.62396e-014 -1.59028e-014
lhumerus 7.53528 -40.0946 102.227
lradius 12.7116
lwrist 13.2843
lhand 7.02795 70.024
lfingers 7.12502
lthumb -147.698 442.831
rfemur -10.7006 -0.427555 2.18196
rtibia 36.3721
rfoot -4.10301 -27.1945
rtoes 8.72085
lfemur -17.7186 0.192625 -20.2708
ltibia 11.2488
lfoot -1.25403 -24.7465
ltoes -6.16205
360
root -6.94703 18.0972 1.1151 -177.532 53.2746 -186.08
lowerback -6.44673 -1.39771 4.52745
upperback 2.5416 -1.95185 12.9175
thorax 6.69276 -0.672156 11.3497
lowerneck -7.20054 -11.0891 -3.11621
upperneck 31.6772 -10.0663 -10.8581
head 10.9912 -5.3865 -4.39528
rclavicle 1.82882e-014 1.30403e-013
rhumerus 1.75342 2.87399 -98.8448
rradius 21.2622
rwrist -49.0407
rhand -16.5962 -15.0526
rfingers 7.12502
rthumb 9.62492 -44.8127
lclavicle 1.82882e-014 1.30403e-013
lhumerus 6.63974 -36.8862 102.733
lradius 12.8505
lwrist 17.7179
lhand 6.35172 70.5209
lfingers 7.12502
lthumb -148.342 442.205
rfemur -9.46487 -0.677475 1.9172
rtibia 36.1716
rfoot -4.41864 -27.2075
rtoes 9.69387
lfemur -17.1872 -0.233394 -20.6946
ltibia 11.1778
lfoot -1.09318 -24.9799
ltoes -5.05326
361
root -6.93237 18.0813 1.07446 -178.057 52.1194 -186.08
lowerback -6.19027 -0.823787 4.33082
upperback 2.14537 -0.977196 13.5318
thorax 5.97501 -0.143228 12.2973
lowerneck -6.32528 -12.0204 -4.06356
upperneck 31.4643 -11.2606 -10.6396
head 10.7797 -5.95366 -4.20852
rclavicle 1.08934e-013 7.63333e-014
rhumerus 3.61556 5.27788 -99.4417
rradius 18.573
rwrist -43.7423
rhand -12.1835 -15.4467
rfingers 7.12502
rthumb 13.8802 -44.9635
lclavicle 1.08934e-013 7.63333e-014
lhumerus 5.88216 -31.942 103.48
lradius 13.2016
lwrist 22.6511
lhand 5.03537 69.7429
lfingers 7.12502
lthumb -149.596 442.744
rfemur -8.1314 -0.937277 1.76931
rtibia 35.894
rfoot -4.34031 -27.0604
rtoes 9.76253
lfemur -16.5918 -0.674196 -20.9519
ltibia 11.1677
lfoot -0.689295 -25.0667
ltoes -3.13016
362
root -6.91881 18.0715 1.03457 -178.341 50.9794 -185.876
lowerback -6.0501 -0.209562 4.41933
upperback 1.77882 0.0277631 14.0569
thorax 5.31683 0.425063 12.9654
lowerneck -5.25403 -12.9366 -4.98993
upperneck 31.0872 -12.5276 -10.2554
head 10.4963 -6.53389 -3.94944
rclavicle 1.35174e-014 1.46306e-013
rhumerus 5.09041 11.7771 -99.2882
rradius 17.9222
rwrist -40.6081
rhand -9.4079 -16.153
rfingers 7.12502
rthumb 16.5538 -45.467
lclavicle 1.35174e-014 1.46306e-013
lhumerus 5.56845 -28.6297 103.654
lradius 13.9589
lwrist 30.3028
lhand 2.07069 67.6989
lfingers 7.12502
lthumb -152.428 444.301
rfemur -6.82532 -1.17442 1.78058
rtibia 35.5297
rfoot -4.43744 -26.9803
rtoes 10.1693
lfemur -16.1377 -1.11912 -21.0654
ltibia 11.2656
lfoot -0.653976 -25.3457
ltoes -2.37159
